<?xml version="1.0" standalone="no"?>
<!DOCTYPE svg PUBLIC "-//W3C//DTD SVG 20010904//EN"
 "http://www.w3.org/TR/2001/REC-SVG-20010904/DTD/svg10.dtd">
<svg version="1.0" xmlns="http://www.w3.org/2000/svg"
 width="24pt" height="24pt" viewBox="0 0 1024.000000 1024.000000"
 preserveAspectRatio="xMidYMid meet">
<path d="m145,40.82c0,0.81 4.87,8.12 10.7,16.38c45.22,63.09 85.29,94.77 165.98,130.78c101.94,45.49 157.18,89.76 194.27,155.55c10.29,18.28 9.34,17.74 14.22,8.53c38.85,-72.7 79.47,-106.68 194.41,-162.19c94.63,-45.62 131.05,-74.33 170.99,-134.57c10.56,-15.7 10.7,-15.43 -9.75,-10.97c-8.66,1.9 -20.71,4.33 -26.67,5.42c-11.1,2.17 -37.77,7.72 -94.77,19.63c-17.87,3.79 -46.44,9.61 -63.63,13.13l-31.14,6.36l-20.31,-8.12c-20.71,-8.26 -49.96,-16.52 -68.37,-19.36c-5.55,-0.81 -11.91,-1.76 -14.22,-2.17c-51.58,-7.99 -122.93,2.3 -173.15,25.05c-10.97,5.01 -9.07,5.14 -61.73,-5.96c-37.23,-7.99 -63.9,-13.4 -94.77,-19.63c-38.04,-7.58 -87.32,-17.74 -89.62,-18.41c-1.35,-0.41 -2.44,-0.14 -2.44,0.54z" id="svg_2"/>
   <path d="m247.94,171.62c-34.18,59.22 -46.27,134.73 -32.82,203.82c30.23,153.97 194.07,263.41 357.3,238.73c185.81,-28.01 305.73,-196.05 261.44,-366.43c-7.28,-28.01 -25.29,-72.18 -33.81,-83.03l-2.1,-2.71l-8.02,5.55c-12.34,8.76 -24.06,15.3 -38.62,21.71c-16.41,7.16 -15.67,6.17 -10.49,12.46c49.6,61.19 55.03,146.94 13.82,219.24c-30.72,53.92 -91.67,99.32 -167.67,125.1c-23.07,7.77 -31.46,13.08 -48.98,30.84c-7.4,7.4 -13.32,12.83 -13.32,12.21c0,-2.84 -20.23,-22.58 -30.47,-29.73c-9.25,-6.54 -13.45,-8.51 -28.75,-13.57c-105.12,-34.79 -179.88,-111.16 -193.58,-197.65c-8.39,-52.44 8.64,-114.74 40.71,-148.92c3.08,-3.45 2.59,-4.07 -5.68,-7.03c-13.57,-4.94 -37.14,-17.89 -47.13,-26.03c-6.42,-5.31 -5.43,-5.8 -11.84,5.43z" id="svg_3" transform="matrix(1 0 0 1 0 0)"/>
   <path d="m393.36,310.84c-37.73,10.55 -54.6,53.43 -35.5,89.99c26.01,49.56 101.82,38.55 113.54,-16.64c9.61,-45.7 -33.04,-85.89 -78.04,-73.35zm8.2,22.85c15.47,7.85 13.59,30.82 -2.81,35.27c-12.42,3.4 -24.14,-5.51 -24.14,-18.16c0,-14.76 14.06,-23.67 26.95,-17.11z" id="svg_4"/>
   <path d="m623.53,311.33c-67.07,19.79 -54.26,120.04 15.37,119.93c46.34,-0.12 74.98,-48.44 53.91,-91.05c-11.99,-24.1 -42.38,-36.79 -69.28,-28.88zm38.89,21.07c18.98,7.1 16.07,33.65 -3.96,36.68c-10.6,1.63 -21.31,-8.03 -21.31,-19.21c0,-13.04 13.04,-22.12 25.27,-17.47z" id="svg_5" transform="matrix(1 0 0 1 0 0)"/>
   <path d="m520.71,367.7c-2.26,2.76 -9.4,10.78 -15.92,17.8c-6.52,6.9 -11.66,13.17 -11.28,13.67c0.38,0.5 2.01,9.28 3.76,19.43c4.39,26.08 19.43,76.11 26.71,89.15c3.39,6.02 23.95,-57.05 30.84,-94.16l2.88,-15.92l-15.55,-17.18c-18.31,-20.06 -16.43,-18.93 -21.44,-12.79z" id="svg_6"/>
   <path d="m331,568.9c-71,39.7 -106.7,59.6 -108.8,60.5c-3.4,1.6 3.8,26.8 17.9,62.6c39.3,99.5 115.4,170.3 214.9,199.9c12.9,3.9 48.6,10.9 49.7,9.8c0.7,-0.8 -3.2,-10.7 -21.5,-54.2c-8.8,-20.9 -19.8,-47.5 -24.5,-59c-9.5,-23.5 -27,-64.4 -46.2,-108c-7,-16 -15.1,-34.4 -18,-41c-2.9,-6.6 -7.5,-17 -10.2,-23c-2.8,-6.1 -6.5,-14.4 -8.3,-18.5c-8.6,-19.7 -18.3,-40.6 -19.3,-41.6c-0.9,-0.9 -7.1,2.1 -25.7,12.5z" id="svg_7"/>
   <path d="m691.8,564.7c-7.9,17.1 -22.6,49.9 -29.3,65.8c-3.9,9.1 -6.3,14.6 -11.5,26c-18.7,41.4 -47.6,107.8 -61.2,141c-8.8,21.4 -22.2,53.4 -27.8,66.5c-6.4,14.8 -15,36.1 -15,37.1c0,1.4 5.8,0.6 25,-3.1c98.1,-19.3 182.7,-85.1 227,-176.5c11.1,-23 30.3,-74.6 32.5,-87.5l0.6,-3.5l-26.8,-15c-52.1,-29.1 -80,-44.8 -93.4,-52.6c-16.6,-9.7 -14.7,-9.8 -20.1,1.8z" id="svg_8"/>
   <path d="m523.9,622.9c-1.4,0.9 -14.6,10.1 -29.2,20.6l-26.5,18.9l1.8,2.6c1,1.4 7.4,8.1 14.2,15c6.8,6.9 14.5,14.8 17,17.5l4.7,5.1l-1.4,8.9c-0.7,5 -2.7,16.2 -4.4,25c-3.3,17.6 -11.4,61.4 -13.1,71.3l-1.1,6.2l8.2,18.7c4.5,10.3 10.8,25 14.1,32.8c19.3,45.8 17,43.4 24.7,25.4c13,-30.4 21.3,-49.6 26.6,-61.8c6.7,-15.4 6.6,-14 2.6,-34.8c-3.8,-19.5 -9.2,-50 -13.2,-73.7l-2.9,-17.8l6.9,-7.7c3.8,-4.2 9.7,-10.3 13.1,-13.6c3.4,-3.3 8.8,-9 12,-12.6l5.9,-6.6l-11.7,-8.5c-6.4,-4.6 -15.5,-11.1 -20.2,-14.3c-4.7,-3.2 -11.9,-8.4 -16,-11.5c-9.6,-7.2 -9.1,-7 -12.1,-5.1z" id="svg_9"/>
</svg>
